<?xml version="1.0" encoding="utf-8"?>
<svg id="master-artboard" viewBox="0 0 1366 768" version="1.1" xmlns="http://www.w3.org/2000/svg" x="0px" y="0px" style="enable-background:new 0 0 1400 980;" width="1366px" height="768px"><defs><style id="ee-google-fonts">@import url(https://fonts.googleapis.com/css?family=Rubik:300,300italic,400,400italic,500,500italic,700,700italic,900,900italic);</style><linearGradient id="gradient-0" gradientUnits="userSpaceOnUse" x1="311.49359130859375" y1="-21.998641967773438" x2="311.49365234375" y2="746.0014038085938" gradientTransform="matrix(0.25968628523999093, -0.9656930592843996, 1.1136806263544163, 0.2994819349024324, 246.7164822415098, 654.3491303163325)">
                <stop offset="0" style="stop-color: #33b4ff"/>
                <stop offset="1" style="stop-color: #0081cc"/>
              </linearGradient></defs><rect id="ee-background" x="0" y="0" width="1366" height="768" style="fill: url('#gradient-0'); fill-opacity: 1; pointer-events: none;"/>








































<path d="M 1406.7449951171875 292.0435485839844 C 1406.7449951171875 292.0435485839844 660.8590087890625 183.41937255859375 1111.6492919921875 -35.639381408691406" style="fill: rgb(255, 200, 89); fill-opacity: 1; stroke: rgb(255, 255, 255); stroke-opacity: 1; stroke-width: 10; paint-order: fill;" transform="matrix(1.4371206760406492, 0, 0, 1.4371206760406492, -408.0732842371573, -148.32735425517788)"/><g transform="matrix(3.5787496566772456, 0, 0, 3.5787496566772456, -1663.386132228333, -200.69823044310124)"><g id="g-7" transform="matrix(1, 0, 0, 1, 0, 0)">
	<g id="g-8">
		<path class="st0" d="M699.8,231c-5.8,14.1-47.1,44.5-47.8,45l0,0c-0.7-0.5-42-30.9-47.8-45s0.5-30.7,14.2-36.7&#10;&#9;&#9;&#9;c12.4-5.4,27-0.6,33.6,11.2c6.7-11.8,21.2-16.6,33.6-11.2C699.3,200.3,705.7,216.8,699.8,231z" style="fill: rgb(82, 116, 255);"/>
	</g>
</g></g><g id="g-9" transform="matrix(3.5787496566772456, 0, 0, 3.5787496566772456, -1831.4090428550753, -196.84849592843352)">
	<g id="g-10">
		<path class="st0" d="M699.8,231c-5.8,14.1-47.1,44.5-47.8,45l0,0c-0.7-0.5-42-30.9-47.8-45s0.5-30.7,14.2-36.7&#10;&#9;&#9;&#9;c12.4-5.4,27-0.6,33.6,11.2c6.7-11.8,21.2-16.6,33.6-11.2C699.3,200.3,705.7,216.8,699.8,231z" style="fill: rgb(82, 116, 255);"/>
	</g>
</g><path class="st0" d="M699.8,231c-5.8,14.1-47.1,44.5-47.8,45l0,0c-0.7-0.5-42-30.9-47.8-45s0.5-30.7,14.2-36.7&#10;&#9;&#9;&#9;c12.4-5.4,27-0.6,33.6,11.2c6.7-11.8,21.2-16.6,33.6-11.2C699.3,200.3,705.7,216.8,699.8,231z" style="fill: rgb(82, 116, 255);" transform="matrix(3.5787496566772456, 0, 0, 3.5787496566772456, -1999.8721390286928, -196.32829627308274)"/><path class="st0" d="M699.8,231c-5.8,14.1-47.1,44.5-47.8,45l0,0c-0.7-0.5-42-30.9-47.8-45s0.5-30.7,14.2-36.7&#10;&#9;&#9;&#9;c12.4-5.4,27-0.6,33.6,11.2c6.7-11.8,21.2-16.6,33.6-11.2C699.3,200.3,705.7,216.8,699.8,231z" style="fill: rgb(82, 116, 255);" transform="matrix(3.5787496566772456, 0, 0, 3.5787496566772456, -2174.669984007447, -196.32831069854262)"/><path class="st0" d="M699.8,231c-5.8,14.1-47.1,44.5-47.8,45l0,0c-0.7-0.5-42-30.9-47.8-45s0.5-30.7,14.2-36.7&#10;&#9;&#9;&#9;c12.4-5.4,27-0.6,33.6,11.2c6.7-11.8,21.2-16.6,33.6-11.2C699.3,200.3,705.7,216.8,699.8,231z" style="fill: rgb(82, 116, 255);" transform="matrix(3.5787496566772456, 0, 0, 3.5787496566772456, -2337.8145886943566, -199.2416040323917)"/><g transform="matrix(3.5787496566772456, 0, 0, 3.5787496566772456, -989.6859259850211, -199.96994465759897)"><g id="g-3" transform="matrix(1, 0, 0, 1, 0, 0)">
	<g id="g-4">
		<path class="st0" d="M699.8,231c-5.8,14.1-47.1,44.5-47.8,45l0,0c-0.7-0.5-42-30.9-47.8-45s0.5-30.7,14.2-36.7&#10;&#9;&#9;&#9;c12.4-5.4,27-0.6,33.6,11.2c6.7-11.8,21.2-16.6,33.6-11.2C699.3,200.3,705.7,216.8,699.8,231z" style="fill: rgb(82, 116, 255);"/>
	</g>
</g></g><g id="g-5" transform="matrix(3.5787496566772456, 0, 0, 3.5787496566772456, -1157.7088752037707, -196.12021321228642)">
	<g id="g-6">
		<path class="st0" d="M699.8,231c-5.8,14.1-47.1,44.5-47.8,45l0,0c-0.7-0.5-42-30.9-47.8-45s0.5-30.7,14.2-36.7&#10;&#9;&#9;&#9;c12.4-5.4,27-0.6,33.6,11.2c6.7-11.8,21.2-16.6,33.6-11.2C699.3,200.3,705.7,216.8,699.8,231z" style="fill: rgb(82, 116, 255);"/>
	</g>
</g><path class="st0" d="M699.8,231c-5.8,14.1-47.1,44.5-47.8,45l0,0c-0.7-0.5-42-30.9-47.8-45s0.5-30.7,14.2-36.7&#10;&#9;&#9;&#9;c12.4-5.4,27-0.6,33.6,11.2c6.7-11.8,21.2-16.6,33.6-11.2C699.3,200.3,705.7,216.8,699.8,231z" style="fill: rgb(82, 116, 255);" transform="matrix(3.5787496566772456, 0, 0, 3.5787496566772456, -1326.172009969396, -195.60001057556772)"/><path class="st0" d="M699.8,231c-5.8,14.1-47.1,44.5-47.8,45l0,0c-0.7-0.5-42-30.9-47.8-45s0.5-30.7,14.2-36.7&#10;&#9;&#9;&#9;c12.4-5.4,27-0.6,33.6,11.2c6.7-11.8,21.2-16.6,33.6-11.2C699.3,200.3,705.7,216.8,699.8,231z" style="fill: rgb(82, 116, 255);" transform="matrix(3.5787496566772456, 0, 0, 3.5787496566772456, -1500.969861531896, -195.60002583435679)"/><path class="st0" d="M699.8,231c-5.8,14.1-47.1,44.5-47.8,45l0,0c-0.7-0.5-42-30.9-47.8-45s0.5-30.7,14.2-36.7&#10;&#9;&#9;&#9;c12.4-5.4,27-0.6,33.6,11.2c6.7-11.8,21.2-16.6,33.6-11.2C699.3,200.3,705.7,216.8,699.8,231z" style="fill: rgb(82, 116, 255);" transform="matrix(3.5787496566772456, 0, 0, 3.5787496566772456, -1664.114636922521, -198.5133253949036)"/><g transform="matrix(3.5787496566772456, 0, 0, 3.5787496566772456, -1575.2589127063848, -153.357182310364)"><g id="g-11" transform="matrix(1, 0, 0, 1, 0, 0)">
	<g id="g-12">
		<path class="st0" d="M699.8,231c-5.8,14.1-47.1,44.5-47.8,45l0,0c-0.7-0.5-42-30.9-47.8-45s0.5-30.7,14.2-36.7&#10;&#9;&#9;&#9;c12.4-5.4,27-0.6,33.6,11.2c6.7-11.8,21.2-16.6,33.6-11.2C699.3,200.3,705.7,216.8,699.8,231z" style="fill: rgb(77, 91, 255);"/>
	</g>
</g></g><g id="g-13" transform="matrix(3.5787496566772456, 0, 0, 3.5787496566772456, -1743.2818619251348, -149.50745086505162)">
	<g id="g-14">
		<path class="st0" d="M699.8,231c-5.8,14.1-47.1,44.5-47.8,45l0,0c-0.7-0.5-42-30.9-47.8-45s0.5-30.7,14.2-36.7&#10;&#9;&#9;&#9;c12.4-5.4,27-0.6,33.6,11.2c6.7-11.8,21.2-16.6,33.6-11.2C699.3,200.3,705.7,216.8,699.8,231z" style="fill: rgb(77, 91, 255);"/>
	</g>
</g><path class="st0" d="M699.8,231c-5.8,14.1-47.1,44.5-47.8,45l0,0c-0.7-0.5-42-30.9-47.8-45s0.5-30.7,14.2-36.7&#10;&#9;&#9;&#9;c12.4-5.4,27-0.6,33.6,11.2c6.7-11.8,21.2-16.6,33.6-11.2C699.3,200.3,705.7,216.8,699.8,231z" style="fill: rgb(77, 91, 255);" transform="matrix(3.5787496566772456, 0, 0, 3.5787496566772456, -1911.7449966907598, -148.98724822833276)"/><path class="st0" d="M699.8,231c-5.8,14.1-47.1,44.5-47.8,45l0,0c-0.7-0.5-42-30.9-47.8-45s0.5-30.7,14.2-36.7&#10;&#9;&#9;&#9;c12.4-5.4,27-0.6,33.6,11.2c6.7-11.8,21.2-16.6,33.6-11.2C699.3,200.3,705.7,216.8,699.8,231z" style="fill: rgb(77, 91, 255);" transform="matrix(3.5787496566772456, 0, 0, 3.5787496566772456, -2086.5426041126348, -148.98724822833276)"/><path class="st0" d="M699.8,231c-5.8,14.1-47.1,44.5-47.8,45l0,0c-0.7-0.5-42-30.9-47.8-45s0.5-30.7,14.2-36.7&#10;&#9;&#9;&#9;c12.4-5.4,27-0.6,33.6,11.2c6.7-11.8,21.2-16.6,33.6-11.2C699.3,200.3,705.7,216.8,699.8,231z" style="fill: rgb(77, 91, 255);" transform="matrix(3.5787496566772456, 0, 0, 3.5787496566772456, -2249.6873795032598, -151.90057830645776)"/><g id="g-17" transform="matrix(3.5787496566772456, 0, 0, 3.5787496566772456, -904.2520441606619, -149.50743927047972)">
	<g id="g-18">
		<path class="st0" d="M699.8,231c-5.8,14.1-47.1,44.5-47.8,45l0,0c-0.7-0.5-42-30.9-47.8-45s0.5-30.7,14.2-36.7&#10;&#9;&#9;&#9;c12.4-5.4,27-0.6,33.6,11.2c6.7-11.8,21.2-16.6,33.6-11.2C699.3,200.3,705.7,216.8,699.8,231z" style="fill: rgb(77, 91, 255);"/>
	</g>
</g><path class="st0" d="M699.8,231c-5.8,14.1-47.1,44.5-47.8,45l0,0c-0.7-0.5-42-30.9-47.8-45s0.5-30.7,14.2-36.7&#10;&#9;&#9;&#9;c12.4-5.4,27-0.6,33.6,11.2c6.7-11.8,21.2-16.6,33.6-11.2C699.3,200.3,705.7,216.8,699.8,231z" style="fill: rgb(77, 91, 255);" transform="matrix(3.5787496566772456, 0, 0, 3.5787496566772456, -1072.7151789262869, -148.98723663376092)"/><path class="st0" d="M699.8,231c-5.8,14.1-47.1,44.5-47.8,45l0,0c-0.7-0.5-42-30.9-47.8-45s0.5-30.7,14.2-36.7&#10;&#9;&#9;&#9;c12.4-5.4,27-0.6,33.6,11.2c6.7-11.8,21.2-16.6,33.6-11.2C699.3,200.3,705.7,216.8,699.8,231z" style="fill: rgb(77, 91, 255);" transform="matrix(3.5787496566772456, 0, 0, 3.5787496566772456, -1247.5127863481619, -148.98723663376092)"/><path class="st0" d="M699.8,231c-5.8,14.1-47.1,44.5-47.8,45l0,0c-0.7-0.5-42-30.9-47.8-45s0.5-30.7,14.2-36.7&#10;&#9;&#9;&#9;c12.4-5.4,27-0.6,33.6,11.2c6.7-11.8,21.2-16.6,33.6-11.2C699.3,200.3,705.7,216.8,699.8,231z" style="fill: rgb(77, 91, 255);" transform="matrix(3.5787496566772456, 0, 0, 3.5787496566772456, -1410.6575617387866, -151.90056671188592)"/><g transform="matrix(3.5787496566772456, 0, 0, 3.5787496566772456, -1822.8891539040578, -100.9178208828265)"><g id="g-19" transform="matrix(1, 0, 0, 1, 0, 0)">
	<g id="g-20">
		<path class="st0" d="M699.8,231c-5.8,14.1-47.1,44.5-47.8,45l0,0c-0.7-0.5-42-30.9-47.8-45s0.5-30.7,14.2-36.7&#10;&#9;&#9;&#9;c12.4-5.4,27-0.6,33.6,11.2c6.7-11.8,21.2-16.6,33.6-11.2C699.3,200.3,705.7,216.8,699.8,231z" style="fill: rgb(84, 121, 255);"/>
	</g>
</g></g><g id="g-21" transform="matrix(3.5787496566772456, 0, 0, 3.5787496566772456, -1990.9121031228078, -97.068089437514)">
	<g id="g-22">
		<path class="st0" d="M699.8,231c-5.8,14.1-47.1,44.5-47.8,45l0,0c-0.7-0.5-42-30.9-47.8-45s0.5-30.7,14.2-36.7&#10;&#9;&#9;&#9;c12.4-5.4,27-0.6,33.6,11.2c6.7-11.8,21.2-16.6,33.6-11.2C699.3,200.3,705.7,216.8,699.8,231z" style="fill: rgb(84, 121, 255);"/>
	</g>
</g><path class="st0" d="M699.8,231c-5.8,14.1-47.1,44.5-47.8,45l0,0c-0.7-0.5-42-30.9-47.8-45s0.5-30.7,14.2-36.7&#10;&#9;&#9;&#9;c12.4-5.4,27-0.6,33.6,11.2c6.7-11.8,21.2-16.6,33.6-11.2C699.3,200.3,705.7,216.8,699.8,231z" style="fill: rgb(84, 121, 255);" transform="matrix(3.5787496566772456, 0, 0, 3.5787496566772456, -2159.3752378884324, -96.54788680079525)"/><path class="st0" d="M699.8,231c-5.8,14.1-47.1,44.5-47.8,45l0,0c-0.7-0.5-42-30.9-47.8-45s0.5-30.7,14.2-36.7&#10;&#9;&#9;&#9;c12.4-5.4,27-0.6,33.6,11.2c6.7-11.8,21.2-16.6,33.6-11.2C699.3,200.3,705.7,216.8,699.8,231z" style="fill: rgb(84, 121, 255);" transform="matrix(3.5787496566772456, 0, 0, 3.5787496566772456, -2334.173089450933, -96.54788680079525)"/><path class="st0" d="M699.8,231c-5.8,14.1-47.1,44.5-47.8,45l0,0c-0.7-0.5-42-30.9-47.8-45s0.5-30.7,14.2-36.7&#10;&#9;&#9;&#9;c12.4-5.4,27-0.6,33.6,11.2c6.7-11.8,21.2-16.6,33.6-11.2C699.3,200.3,705.7,216.8,699.8,231z" style="fill: rgb(84, 121, 255);" transform="matrix(3.5787496566772456, 0, 0, 3.5787496566772456, -2497.3178648415574, -99.46121687892025)"/><g transform="matrix(3.5787496566772456, 0, 0, 3.5787496566772456, -982.4026575804291, -100.91777652445265)"><g id="g-23" transform="matrix(1, 0, 0, 1, 0, 0)">
	<g id="g-24">
		<path class="st0" d="M699.8,231c-5.8,14.1-47.1,44.5-47.8,45l0,0c-0.7-0.5-42-30.9-47.8-45s0.5-30.7,14.2-36.7&#10;&#9;&#9;&#9;c12.4-5.4,27-0.6,33.6,11.2c6.7-11.8,21.2-16.6,33.6-11.2C699.3,200.3,705.7,216.8,699.8,231z" style="fill: rgb(84, 121, 255);"/>
	</g>
</g></g><g id="g-25" transform="matrix(3.5787496566772456, 0, 0, 3.5787496566772456, -1150.4256067991794, -97.06804507914015)">
	<g id="g-26">
		<path class="st0" d="M699.8,231c-5.8,14.1-47.1,44.5-47.8,45l0,0c-0.7-0.5-42-30.9-47.8-45s0.5-30.7,14.2-36.7&#10;&#9;&#9;&#9;c12.4-5.4,27-0.6,33.6,11.2c6.7-11.8,21.2-16.6,33.6-11.2C699.3,200.3,705.7,216.8,699.8,231z" style="fill: rgb(84, 121, 255);"/>
	</g>
</g><path class="st0" d="M699.8,231c-5.8,14.1-47.1,44.5-47.8,45l0,0c-0.7-0.5-42-30.9-47.8-45s0.5-30.7,14.2-36.7&#10;&#9;&#9;&#9;c12.4-5.4,27-0.6,33.6,11.2c6.7-11.8,21.2-16.6,33.6-11.2C699.3,200.3,705.7,216.8,699.8,231z" style="fill: rgb(84, 121, 255);" transform="matrix(3.5787496566772456, 0, 0, 3.5787496566772456, -1318.8887415648044, -96.54784244242146)"/><path class="st0" d="M699.8,231c-5.8,14.1-47.1,44.5-47.8,45l0,0c-0.7-0.5-42-30.9-47.8-45s0.5-30.7,14.2-36.7&#10;&#9;&#9;&#9;c12.4-5.4,27-0.6,33.6,11.2c6.7-11.8,21.2-16.6,33.6-11.2C699.3,200.3,705.7,216.8,699.8,231z" style="fill: rgb(84, 121, 255);" transform="matrix(3.5787496566772456, 0, 0, 3.5787496566772456, -1493.6865931273041, -96.54784244242146)"/><path class="st0" d="M699.8,231c-5.8,14.1-47.1,44.5-47.8,45l0,0c-0.7-0.5-42-30.9-47.8-45s0.5-30.7,14.2-36.7&#10;&#9;&#9;&#9;c12.4-5.4,27-0.6,33.6,11.2c6.7-11.8,21.2-16.6,33.6-11.2C699.3,200.3,705.7,216.8,699.8,231z" style="fill: rgb(84, 121, 255);" transform="matrix(3.5787496566772456, 0, 0, 3.5787496566772456, -1656.8313685179287, -99.4611725205464)"/><g transform="matrix(3.5787496566772456, 0, 0, 3.5787496566772456, -1653.9177895784624, -60.85992495846443)"><g id="g-27" transform="matrix(1, 0, 0, 1, 0, 0)">
	<g id="g-28">
		<path class="st0" d="M699.8,231c-5.8,14.1-47.1,44.5-47.8,45l0,0c-0.7-0.5-42-30.9-47.8-45s0.5-30.7,14.2-36.7&#10;&#9;&#9;&#9;c12.4-5.4,27-0.6,33.6,11.2c6.7-11.8,21.2-16.6,33.6-11.2C699.3,200.3,705.7,216.8,699.8,231z" style="fill: rgb(255, 255, 255);"/>
	</g>
</g></g><g id="g-29" transform="matrix(3.5787496566772456, 0, 0, 3.5787496566772456, -1821.9408608675244, -57.010193513151876)">
	<g id="g-30">
		<path class="st0" d="M699.8,231c-5.8,14.1-47.1,44.5-47.8,45l0,0c-0.7-0.5-42-30.9-47.8-45s0.5-30.7,14.2-36.7&#10;&#9;&#9;&#9;c12.4-5.4,27-0.6,33.6,11.2c6.7-11.8,21.2-16.6,33.6-11.2C699.3,200.3,705.7,216.8,699.8,231z" style="fill: rgb(255, 255, 255);"/>
	</g>
</g><path class="st0" d="M699.8,231c-5.8,14.1-47.1,44.5-47.8,45l0,0c-0.7-0.5-42-30.9-47.8-45s0.5-30.7,14.2-36.7&#10;&#9;&#9;&#9;c12.4-5.4,27-0.6,33.6,11.2c6.7-11.8,21.2-16.6,33.6-11.2C699.3,200.3,705.7,216.8,699.8,231z" style="fill: rgb(255, 255, 255);" transform="matrix(3.5787496566772456, 0, 0, 3.5787496566772456, -1990.4039956331494, -56.489990876433126)"/><path class="st0" d="M699.8,231c-5.8,14.1-47.1,44.5-47.8,45l0,0c-0.7-0.5-42-30.9-47.8-45s0.5-30.7,14.2-36.7&#10;&#9;&#9;&#9;c12.4-5.4,27-0.6,33.6,11.2c6.7-11.8,21.2-16.6,33.6-11.2C699.3,200.3,705.7,216.8,699.8,231z" style="fill: rgb(255, 255, 255);" transform="matrix(3.5787496566772456, 0, 0, 3.5787496566772456, -2165.2018471956494, -56.489990876433126)"/><path class="st0" d="M699.8,231c-5.8,14.1-47.1,44.5-47.8,45l0,0c-0.7-0.5-42-30.9-47.8-45s0.5-30.7,14.2-36.7&#10;&#9;&#9;&#9;c12.4-5.4,27-0.6,33.6,11.2c6.7-11.8,21.2-16.6,33.6-11.2C699.3,200.3,705.7,216.8,699.8,231z" style="fill: rgb(255, 255, 255);" transform="matrix(3.5787496566772456, 0, 0, 3.5787496566772456, -2328.3466225862744, -59.403320954558126)"/><g transform="matrix(3.5787496566772456, 0, 0, 3.5787496566772456, -813.4313052013543, -63.044895653499424)"><g id="g-31" transform="matrix(1, 0, 0, 1, 0, 0)">
	<g id="g-32">
		<path class="st0" d="M699.8,231c-5.8,14.1-47.1,44.5-47.8,45l0,0c-0.7-0.5-42-30.9-47.8-45s0.5-30.7,14.2-36.7&#10;&#9;&#9;&#9;c12.4-5.4,27-0.6,33.6,11.2c6.7-11.8,21.2-16.6,33.6-11.2C699.3,200.3,705.7,216.8,699.8,231z" style="fill: rgb(255, 255, 255);"/>
	</g>
</g></g><g id="g-33" transform="matrix(3.5787496566772456, 0, 0, 3.5787496566772456, -981.4543764904168, -59.195164208186924)">
	<g id="g-34">
		<path class="st0" d="M699.8,231c-5.8,14.1-47.1,44.5-47.8,45l0,0c-0.7-0.5-42-30.9-47.8-45s0.5-30.7,14.2-36.7&#10;&#9;&#9;&#9;c12.4-5.4,27-0.6,33.6,11.2c6.7-11.8,21.2-16.6,33.6-11.2C699.3,200.3,705.7,216.8,699.8,231z" style="fill: rgb(255, 255, 255);"/>
	</g>
</g><path class="st0" d="M699.8,231c-5.8,14.1-47.1,44.5-47.8,45l0,0c-0.7-0.5-42-30.9-47.8-45s0.5-30.7,14.2-36.7&#10;&#9;&#9;&#9;c12.4-5.4,27-0.6,33.6,11.2c6.7-11.8,21.2-16.6,33.6-11.2C699.3,200.3,705.7,216.8,699.8,231z" style="fill: rgb(255, 255, 255);" transform="matrix(3.5787496566772456, 0, 0, 3.5787496566772456, -1149.917511256042, -58.6749615714682)"/><path class="st0" d="M699.8,231c-5.8,14.1-47.1,44.5-47.8,45l0,0c-0.7-0.5-42-30.9-47.8-45s0.5-30.7,14.2-36.7&#10;&#9;&#9;&#9;c12.4-5.4,27-0.6,33.6,11.2c6.7-11.8,21.2-16.6,33.6-11.2C699.3,200.3,705.7,216.8,699.8,231z" style="fill: rgb(255, 255, 255);" transform="matrix(3.5787496566772456, 0, 0, 3.5787496566772456, -1324.7153628185417, -58.6749615714682)"/><path class="st0" d="M699.8,231c-5.8,14.1-47.1,44.5-47.8,45l0,0c-0.7-0.5-42-30.9-47.8-45s0.5-30.7,14.2-36.7&#10;&#9;&#9;&#9;c12.4-5.4,27-0.6,33.6,11.2c6.7-11.8,21.2-16.6,33.6-11.2C699.3,200.3,705.7,216.8,699.8,231z" style="fill: rgb(255, 255, 255);" transform="matrix(3.5787496566772456, 0, 0, 3.5787496566772456, -1487.8601382091667, -61.588291649593174)"/><path d="M 983.6484375 -0.3730976879596717 L 1003.2753295898438 55.831214904785156 L 1052.3426513671875 99.54568481445312 L 1122.821044921875 135.23095703125 L 1200.4365234375 170.02410888671875 L 1234.3375244140625 179.83755493164062 L 1328.903564453125 212.846435546875 L 1369.941650390625 219.98348999023438 L 1374.4022216796875 -11.970812797546387 L 983.6484375 -0.3730976879596717 Z" style="fill-opacity: 1; stroke: rgb(255, 255, 255); stroke-opacity: 1; stroke-width: 10; paint-order: fill; fill: rgb(255, 255, 255);"/></svg>