<?xml version="1.0" encoding="UTF-8" standalone="no"?><!-- Generator: Gravit.io --><svg xmlns="http://www.w3.org/2000/svg" xmlns:xlink="http://www.w3.org/1999/xlink" style="isolation:isolate" viewBox="0 0 768 1366" width="768pt" height="1366pt"><defs><clipPath id="_clipPath_n1DUqri5avAUTOEhZgF6GoHhDYIVfBUy"><rect width="768" height="1366"/></clipPath></defs><g clip-path="url(#_clipPath_n1DUqri5avAUTOEhZgF6GoHhDYIVfBUy)"><clipPath id="_clipPath_XuavwjbEu80a0ZkfBtqwYwNzuWLukdmh"><rect x="0" y="0" width="768" height="1366" transform="matrix(1,0,0,1,0,0)" fill="rgb(255,255,255)"/></clipPath><g clip-path="url(#_clipPath_XuavwjbEu80a0ZkfBtqwYwNzuWLukdmh)"><g><line x1="0" y1="511.307" x2="0" y2="508.78"/><line x1="0" y1="504.324" x2="0" y2="481.719"/><linearGradient id="_lgradient_0" x1="0.2218943151382767" y1="0.4517626761931218" x2="0.8480339841503104" y2="0.5464281442072081" gradientTransform="matrix(1366,0,0,768,0,0)" gradientUnits="userSpaceOnUse"><stop offset="0%" stop-opacity="1" style="stop-color:rgb(51,180,255)"/><stop offset="100%" stop-opacity="1" style="stop-color:rgb(0,129,204)"/></linearGradient><path d=" M 0 481.719 L 0 0 L 1366 0 L 1366 768 L 0 768 L 0 575.463" fill="url(#_lgradient_0)"/><clipPath id="_clipPath_rmgNFn2moEaxnjIFczB4UUkNUaJTj6zP"><rect x="174.045" y="361.024" width="187" height="95.976" transform="matrix(1,0,0,1,0,0)" fill="rgb(255,255,255)"/></clipPath><g clip-path="url(#_clipPath_rmgNFn2moEaxnjIFczB4UUkNUaJTj6zP)"><g><g clip-path="url(#_clipPath_EHOFvuFGz8yntD67M4kPsdzS2JoUZEB3)"><text transform="matrix(1,0,0,1,174.045,438.928)" style="font-face:'Playfair Display';font-weight:400;font-size:72px;font-style:normal;">Louis</text></g><defs><clipPath id="_clipPath_EHOFvuFGz8yntD67M4kPsdzS2JoUZEB3"><rect x="0" y="0" width="179" height="95.976" transform="matrix(1,0,0,1,174.045,361.024)"/></clipPath></defs></g></g><clipPath id="_clipPath_GEi8eZTA8TrAPThWgSR0egEVFsDUywhV"><rect x="344.07" y="434.985" width="202" height="95.976" transform="matrix(1,0,0,1,0,0)" fill="rgb(255,255,255)"/></clipPath><g clip-path="url(#_clipPath_GEi8eZTA8TrAPThWgSR0egEVFsDUywhV)"><g><g clip-path="url(#_clipPath_hThEffkwpzcHWFF5Wg3Uou5cm7qnFtJJ)"><text transform="matrix(1,0,0,1,344.07,512.889)" style="font-face:'Playfair Display';font-weight:400;font-size:72px;font-style:normal;">Ottley</text></g><defs><clipPath id="_clipPath_hThEffkwpzcHWFF5Wg3Uou5cm7qnFtJJ"><rect x="0" y="0" width="195" height="95.976" transform="matrix(1,0,0,1,344.07,434.985)"/></clipPath></defs></g></g><line x1="0" y1="575.463" x2="0" y2="540.818"/><line x1="0" y1="540.818" x2="0" y2="534.443"/><line x1="0" y1="534.443" x2="0" y2="530.961"/><line x1="0" y1="530.961" x2="0" y2="511.307"/><rect x="-187" y="-52" width="1002" height="159" transform="matrix(1,0,0,1,0,0)" fill="rgb(255,255,255)"/><line x1="0" y1="508.78" x2="0" y2="504.324"/><g><g><g><path d=" M 841.023 846.289 C 820.266 896.749 672.464 1005.543 669.959 1007.333 L 669.959 1007.333 C 667.454 1005.543 519.651 896.749 498.894 846.289 C 478.138 795.829 500.684 736.421 549.713 714.949 C 594.089 695.624 646.339 712.802 669.959 755.031 C 693.936 712.802 745.828 695.624 790.205 714.949 C 839.234 736.421 862.138 795.471 841.023 846.289 Z " fill="rgb(82,116,255)"/></g></g></g><g><g><path d=" M 673 850.139 C 652.243 900.599 504.441 1009.393 501.936 1011.182 L 501.936 1011.182 C 499.431 1009.393 351.628 900.599 330.871 850.139 C 310.115 799.678 332.661 740.271 381.69 718.799 C 426.066 699.473 478.316 716.651 501.936 758.881 C 525.913 716.651 577.805 699.473 622.182 718.799 C 671.211 740.271 694.115 799.321 673 850.139 Z " fill="rgb(82,116,255)"/></g></g><path d=" M 504.537 850.659 C 483.78 901.119 335.978 1009.913 333.473 1011.703 L 333.473 1011.703 C 330.968 1009.913 183.165 901.119 162.408 850.659 C 141.652 800.199 164.198 740.791 213.227 719.319 C 257.603 699.994 309.853 717.172 333.473 759.401 C 357.45 717.172 409.342 699.994 453.719 719.319 C 502.747 740.791 525.651 799.841 504.537 850.659 Z " fill="rgb(82,116,255)"/><path d=" M 329.739 850.659 C 308.982 901.119 161.18 1009.913 158.675 1011.703 L 158.675 1011.703 C 156.17 1009.913 8.367 901.119 -12.389 850.659 C -33.146 800.199 -10.6 740.791 38.429 719.319 C 82.805 699.994 135.055 717.172 158.675 759.401 C 182.652 717.172 234.544 699.994 278.921 719.319 C 327.95 740.791 350.854 799.841 329.739 850.659 Z " fill="rgb(82,116,255)"/><path d=" M 166.594 847.746 C 145.838 898.206 -1.965 1007 -4.47 1008.789 L -4.47 1008.789 C -6.975 1007 -154.777 898.206 -175.534 847.746 C -196.291 797.285 -173.745 737.878 -124.716 716.406 C -80.339 697.08 -28.09 714.258 -4.47 756.488 C 19.508 714.258 71.4 697.08 115.776 716.406 C 164.805 737.878 187.709 796.927 166.594 847.746 Z " fill="rgb(82,116,255)"/><g><g><g><path d=" M 1514.723 626.721 C 1493.966 677.182 1346.164 899.272 1343.659 901.061 L 1343.659 901.061 C 1341.154 899.272 1193.351 790.478 1172.595 740.017 C 1151.838 689.557 1174.384 630.15 1223.413 608.677 C 1267.789 589.352 1320.039 606.53 1343.659 648.759 C 1367.636 606.53 1419.528 476.056 1463.905 495.381 C 1512.934 516.854 1535.838 575.903 1514.723 626.721 Z " fill="rgb(82,116,255)"/></g></g></g><g><g><path d=" M 1346.7 743.867 C 1325.943 794.327 1178.141 903.121 1175.636 904.911 L 1175.636 904.911 C 1173.131 903.121 1025.328 901.327 1004.572 850.867 C 983.815 800.407 1006.361 740.999 1055.39 719.527 C 1099.766 700.202 1152.016 610.38 1175.636 652.609 C 1199.614 610.38 1251.505 593.202 1295.882 612.527 C 1344.911 633.999 1367.815 693.049 1346.7 743.867 Z " fill="rgb(82,116,255)"/></g></g><path d=" M 1178.237 744.387 C 1157.48 794.848 1009.678 1010.642 1007.173 1012.431 L 1007.173 1012.431 C 1004.668 1010.642 856.865 901.848 836.109 851.387 C 815.352 800.927 837.898 741.52 886.927 720.047 C 931.303 700.722 983.553 717.9 1007.173 760.129 C 1031.15 717.9 1083.042 700.722 1127.419 720.047 C 1176.448 741.52 1199.352 693.569 1178.237 744.387 Z " fill="rgb(82,116,255)"/><path d=" M 1003.439 851.387 C 982.682 901.848 834.88 1010.642 832.375 1012.431 L 832.375 1012.431 C 829.87 1010.642 682.067 901.848 661.311 851.387 C 640.554 800.927 663.1 741.52 712.129 720.047 C 756.505 700.722 808.755 717.9 832.375 760.129 C 856.353 717.9 908.244 700.722 952.621 720.047 C 1001.65 741.52 1024.554 800.569 1003.439 851.387 Z " fill="rgb(82,116,255)"/><path d=" M 840.294 848.474 C 819.538 898.934 671.735 1007.728 669.23 1009.518 L 669.23 1009.518 C 666.725 1007.728 518.923 898.934 498.166 848.474 C 477.409 798.014 499.955 738.606 548.984 717.134 C 593.361 697.809 645.61 714.987 669.23 757.216 C 693.208 714.987 745.1 697.809 789.476 717.134 C 838.505 738.606 861.409 797.656 840.294 848.474 Z " fill="rgb(82,116,255)"/><g><g><g><path d=" M 929.15 893.63 C 908.393 944.09 760.591 1052.884 758.086 1054.674 L 758.086 1054.674 C 755.581 1052.884 607.778 944.09 587.022 893.63 C 566.265 843.17 588.811 783.762 637.84 762.29 C 682.216 742.965 734.466 760.143 758.086 802.372 C 782.063 760.143 833.955 742.965 878.332 762.29 C 927.361 783.762 950.265 842.812 929.15 893.63 Z " fill="rgb(77,91,255)"/></g></g></g><g><g><path d=" M 761.127 897.48 C 740.37 947.94 592.568 1056.734 590.063 1058.524 L 590.063 1058.524 C 587.558 1056.734 439.755 947.94 418.999 897.48 C 398.242 847.019 420.788 787.612 469.817 766.14 C 514.193 746.814 566.443 763.992 590.063 806.222 C 614.041 763.992 665.932 746.814 710.309 766.14 C 759.338 787.612 782.242 846.662 761.127 897.48 Z " fill="rgb(77,91,255)"/></g></g><path d=" M 592.664 898 C 571.907 948.46 424.105 1057.254 421.6 1059.044 L 421.6 1059.044 C 419.095 1057.254 271.292 948.46 250.536 898 C 229.779 847.54 252.325 788.132 301.354 766.66 C 345.73 747.335 397.98 764.513 421.6 806.742 C 445.577 764.513 497.469 747.335 541.846 766.66 C 590.875 788.132 613.779 847.182 592.664 898 Z " fill="rgb(77,91,255)"/><path d=" M 417.866 898 C 397.11 948.46 249.307 1057.254 246.802 1059.044 L 246.802 1059.044 C 244.297 1057.254 96.495 948.46 75.738 898 C 54.981 847.54 77.527 788.132 126.556 766.66 C 170.933 747.335 223.182 764.513 246.802 806.742 C 270.78 764.513 322.672 747.335 367.048 766.66 C 416.077 788.132 438.981 847.182 417.866 898 Z " fill="rgb(77,91,255)"/><path d=" M 254.722 895.087 C 233.965 945.547 86.163 1054.341 83.657 1056.13 L 83.657 1056.13 C 81.152 1054.341 -66.65 945.547 -87.407 895.087 C -108.164 844.626 -85.617 785.219 -36.589 763.747 C 7.788 744.421 60.038 761.599 83.657 803.829 C 107.635 761.599 159.527 744.421 203.903 763.747 C 252.932 785.219 275.836 844.268 254.722 895.087 Z " fill="rgb(77,91,255)"/><g><g><path d=" M 1600.157 677.184 C 1579.4 727.644 1431.598 836.438 1429.093 838.227 L 1429.093 838.227 C 1426.588 836.438 1278.785 840.94 1258.028 790.48 C 1237.272 740.019 1259.818 680.612 1308.847 659.14 C 1353.223 639.814 1405.473 543.696 1429.093 585.926 C 1453.07 543.696 1504.962 526.518 1549.339 545.844 C 1598.368 567.316 1621.272 626.365 1600.157 677.184 Z " fill="rgb(77,91,255)"/></g></g><path d=" M 1431.694 677.704 C 1410.937 728.164 1263.135 950.254 1260.63 952.044 L 1260.63 952.044 C 1258.124 950.254 1110.322 948.46 1089.565 898 C 1068.809 847.54 1091.355 788.132 1140.384 766.66 C 1184.76 747.335 1237.01 657.513 1260.63 699.742 C 1284.607 657.513 1336.499 640.335 1380.876 659.66 C 1429.904 681.132 1452.808 626.886 1431.694 677.704 Z " fill="rgb(77,91,255)"/><path d=" M 1256.896 791 C 1236.139 841.46 1088.337 1057.254 1085.832 1059.044 L 1085.832 1059.044 C 1083.327 1057.254 935.525 948.46 914.768 898 C 894.011 847.54 916.557 788.132 965.586 766.66 C 1009.962 747.335 1062.212 764.513 1085.832 806.742 C 1109.81 764.513 1161.701 640.335 1206.078 659.66 C 1255.107 681.132 1278.011 740.182 1256.896 791 Z " fill="rgb(77,91,255)"/><path d=" M 1093.751 895.087 C 1072.995 945.547 925.192 1054.341 922.687 1056.13 L 922.687 1056.13 C 920.182 1054.341 772.38 945.547 751.623 895.087 C 730.866 844.626 753.412 785.219 802.441 763.747 C 846.818 744.421 899.067 761.599 922.687 803.829 C 946.665 761.599 998.557 744.421 1042.933 763.747 C 1091.962 785.219 1114.866 844.268 1093.751 895.087 Z " fill="rgb(77,91,255)"/><g><g><g><path d=" M 681.52 946.069 C 660.763 996.53 512.961 1105.324 510.456 1107.113 L 510.456 1107.113 C 507.95 1105.324 360.148 996.53 339.391 946.069 C 318.635 895.609 341.181 836.202 390.21 814.729 C 434.586 795.404 486.836 812.582 510.456 854.811 C 534.433 812.582 586.325 795.404 630.702 814.729 C 679.73 836.202 702.634 895.251 681.52 946.069 Z " fill="rgb(84,121,255)"/></g></g></g><g><g><path d=" M 513.497 949.919 C 492.74 1000.38 344.938 1109.174 342.433 1110.963 L 342.433 1110.963 C 339.928 1109.174 192.125 1000.38 171.368 949.919 C 150.612 899.459 173.158 840.052 222.187 818.579 C 266.563 799.254 318.813 816.432 342.433 858.661 C 366.41 816.432 418.302 799.254 462.679 818.579 C 511.708 840.052 534.612 899.101 513.497 949.919 Z " fill="rgb(84,121,255)"/></g></g><path d=" M 345.034 950.439 C 324.277 1000.9 176.475 1109.694 173.97 1111.483 L 173.97 1111.483 C 171.464 1109.694 23.662 1000.9 2.905 950.439 C -17.851 899.979 4.695 840.572 53.724 819.099 C 98.1 799.774 150.35 816.952 173.97 859.181 C 197.947 816.952 249.839 799.774 294.216 819.099 C 343.244 840.572 366.148 899.621 345.034 950.439 Z " fill="rgb(84,121,255)"/><path d=" M 170.236 950.439 C 149.479 1000.9 1.677 1109.694 -0.828 1111.483 L -0.828 1111.483 C -3.333 1109.694 -151.136 1000.9 -171.893 950.439 C -192.649 899.979 -170.103 840.572 -121.074 819.099 C -76.698 799.774 -24.448 816.952 -0.828 859.181 C 23.149 816.952 75.041 799.774 119.418 819.099 C 168.447 840.572 191.351 899.621 170.236 950.439 Z " fill="rgb(84,121,255)"/><path d=" M 7.091 947.526 C -13.666 997.986 -161.468 1106.78 -163.973 1108.57 L -163.973 1108.57 C -166.478 1106.78 -314.281 997.986 -335.037 947.526 C -355.794 897.066 -333.248 837.658 -284.219 816.186 C -239.843 796.861 -187.593 814.039 -163.973 856.268 C -139.995 814.039 -88.104 796.861 -43.727 816.186 C 5.302 837.658 28.206 896.708 7.091 947.526 Z " fill="rgb(84,121,255)"/><g><g><g><path d=" M 1522.006 725.773 C 1501.25 776.234 1353.447 998.324 1350.942 1000.113 L 1350.942 1000.113 C 1348.437 998.324 1200.635 889.53 1179.878 839.069 C 1159.121 788.609 1181.667 729.202 1230.696 707.729 C 1275.073 688.404 1327.322 705.582 1350.942 747.811 C 1374.92 705.582 1426.812 575.108 1471.188 594.433 C 1520.217 615.906 1543.121 674.955 1522.006 725.773 Z " fill="rgb(84,121,255)"/></g></g></g><g><g><path d=" M 1353.983 842.919 C 1333.227 893.38 1185.424 1002.174 1182.919 1003.963 L 1182.919 1003.963 C 1180.414 1002.174 1032.612 1000.38 1011.855 949.919 C 991.098 899.459 1013.644 840.052 1062.673 818.579 C 1107.05 799.254 1159.299 709.432 1182.919 751.661 C 1206.897 709.432 1258.789 692.254 1303.165 711.579 C 1352.194 733.052 1375.098 792.101 1353.983 842.919 Z " fill="rgb(84,121,255)"/></g></g><path d=" M 1185.52 843.439 C 1164.764 893.9 1016.961 1109.694 1014.456 1111.483 L 1014.456 1111.483 C 1011.951 1109.694 864.149 1000.9 843.392 950.439 C 822.635 899.979 845.181 840.572 894.21 819.099 C 938.587 799.774 990.836 816.952 1014.456 859.181 C 1038.434 816.952 1090.326 799.774 1134.702 819.099 C 1183.731 840.572 1206.635 792.621 1185.52 843.439 Z " fill="rgb(84,121,255)"/><path d=" M 1010.722 950.439 C 989.966 1000.9 842.163 1109.694 839.658 1111.483 L 839.658 1111.483 C 837.153 1109.694 689.351 1000.9 668.594 950.439 C 647.837 899.979 670.383 840.572 719.412 819.099 C 763.789 799.774 816.038 816.952 839.658 859.181 C 863.636 816.952 915.528 799.774 959.904 819.099 C 1008.933 840.572 1031.837 899.621 1010.722 950.439 Z " fill="rgb(84,121,255)"/><path d=" M 847.578 947.526 C 826.821 997.986 679.019 1106.78 676.513 1108.57 L 676.513 1108.57 C 674.008 1106.78 526.206 997.986 505.449 947.526 C 484.692 897.066 507.239 837.658 556.267 816.186 C 600.644 796.861 652.894 814.039 676.513 856.268 C 700.491 814.039 752.383 796.861 796.759 816.186 C 845.788 837.658 868.692 896.708 847.578 947.526 Z " fill="rgb(84,121,255)"/><g><g><g><path d=" M 850.491 986.127 C 829.734 1036.588 681.932 1145.382 679.427 1147.171 L 679.427 1147.171 C 676.922 1145.382 529.12 1036.588 508.363 986.127 C 487.606 935.667 510.152 876.26 559.181 854.787 C 603.557 835.462 655.807 852.64 679.427 894.869 C 703.405 852.64 755.296 835.462 799.673 854.787 C 848.702 876.26 871.606 935.309 850.491 986.127 Z " fill="rgb(255,255,255)"/></g></g></g><g><g><path d=" M 682.468 989.977 C 661.711 1040.437 513.909 1149.231 511.404 1151.021 L 511.404 1151.021 C 508.899 1149.231 361.096 1040.437 340.34 989.977 C 319.583 939.517 342.129 880.109 391.158 858.637 C 435.534 839.312 487.784 856.49 511.404 898.719 C 535.382 856.49 587.273 839.312 631.65 858.637 C 680.679 880.109 703.583 939.159 682.468 989.977 Z " fill="rgb(255,255,255)"/></g></g><path d=" M 514.005 990.497 C 493.248 1040.958 345.446 1149.752 342.941 1151.541 L 342.941 1151.541 C 340.436 1149.752 192.633 1040.958 171.877 990.497 C 151.12 940.037 173.666 880.63 222.695 859.157 C 267.071 839.832 319.321 857.01 342.941 899.239 C 366.918 857.01 418.81 839.832 463.187 859.157 C 512.216 880.63 535.12 939.679 514.005 990.497 Z " fill="rgb(255,255,255)"/><path d=" M 339.207 990.497 C 318.45 1040.958 170.648 1149.752 168.143 1151.541 L 168.143 1151.541 C 165.638 1149.752 17.835 1040.958 -2.921 990.497 C -23.678 940.037 -1.132 880.63 47.897 859.157 C 92.273 839.832 144.523 857.01 168.143 899.239 C 192.121 857.01 244.012 839.832 288.389 859.157 C 337.418 880.63 360.322 939.679 339.207 990.497 Z " fill="rgb(255,255,255)"/><path d=" M 176.062 987.584 C 155.306 1038.044 7.503 1146.838 4.998 1148.628 L 4.998 1148.628 C 2.493 1146.838 -145.309 1038.044 -166.066 987.584 C -186.823 937.124 -164.277 877.716 -115.248 856.244 C -70.871 836.919 -18.622 854.097 4.998 896.326 C 28.976 854.097 80.868 836.919 125.244 856.244 C 174.273 877.716 197.177 936.766 176.062 987.584 Z " fill="rgb(255,255,255)"/><g><g><g><path d=" M 1690.978 763.646 C 1670.221 814.107 1522.419 922.901 1519.913 924.69 L 1519.913 924.69 C 1517.408 922.901 1369.606 927.403 1348.849 876.942 C 1328.092 826.482 1350.639 767.075 1399.667 745.602 C 1444.044 726.277 1496.294 630.159 1519.913 672.388 C 1543.891 630.159 1595.783 612.981 1640.159 632.306 C 1689.188 653.779 1712.092 712.828 1690.978 763.646 Z " fill="rgb(255,255,255)"/></g></g></g><g><g><path d=" M 1522.955 767.496 C 1502.198 817.956 1354.396 1040.046 1351.89 1041.836 L 1351.89 1041.836 C 1349.385 1040.046 1201.583 931.252 1180.826 880.792 C 1160.069 830.332 1182.616 770.924 1231.644 749.452 C 1276.021 730.127 1328.271 747.305 1351.89 789.534 C 1375.868 747.305 1427.76 616.831 1472.136 636.156 C 1521.165 657.628 1544.069 716.678 1522.955 767.496 Z " fill="rgb(255,255,255)"/></g></g><path d=" M 1354.491 881.312 C 1333.735 931.773 1185.932 1040.567 1183.427 1042.356 L 1183.427 1042.356 C 1180.922 1040.567 1033.12 1038.773 1012.363 988.312 C 991.606 937.852 1014.152 878.445 1063.181 856.972 C 1107.558 837.647 1159.808 747.825 1183.427 790.054 C 1207.405 747.825 1259.297 730.647 1303.673 749.972 C 1352.702 771.445 1375.606 830.494 1354.491 881.312 Z " fill="rgb(255,255,255)"/><path d=" M 1179.694 881.312 C 1158.937 931.773 1011.135 1147.567 1008.629 1149.356 L 1008.629 1149.356 C 1006.124 1147.567 858.322 1038.773 837.565 988.312 C 816.808 937.852 839.355 878.445 888.383 856.972 C 932.76 837.647 985.01 854.825 1008.629 897.054 C 1032.607 854.825 1084.499 837.647 1128.875 856.972 C 1177.904 878.445 1200.808 830.494 1179.694 881.312 Z " fill="rgb(255,255,255)"/><path d=" M 1016.549 985.399 C 995.792 1035.859 847.99 1144.653 845.485 1146.443 L 845.485 1146.443 C 842.98 1144.653 695.177 1035.859 674.42 985.399 C 653.664 934.939 676.21 875.531 725.239 854.059 C 769.615 834.734 821.865 851.912 845.485 894.141 C 869.462 851.912 921.354 834.734 965.731 854.059 C 1014.759 875.531 1037.663 934.581 1016.549 985.399 Z " fill="rgb(255,255,255)"/><mask id="_mask_Xmjh3U1FvFKf1haGIGVejBXA6f4eC6Z4" x="-200%" y="-200%" width="400%" height="400%"><rect x="-200%" y="-200%" width="400%" height="400%" style="fill:white;"/><path d=" M 730.767 58.462 C 836.15 158.535 846.103 252.744 764.819 145.66 C 739.098 111.774 625.471 233.281 592.717 196.512 C 541.305 138.8 493.62 297.797 392.598 308.598 C 350.762 313.071 206.52 279.732 175.66 232.598 C 139.89 177.963 12.714 343.184 -94.402 189.598 C -201.518 36.012 616.109 -50.419 730.767 58.462 Z " fill="black" stroke="none"/></mask><path d=" M 730.767 58.462 C 836.15 158.535 846.103 252.744 764.819 145.66 C 739.098 111.774 625.471 233.281 592.717 196.512 C 541.305 138.8 493.62 297.797 392.598 308.598 C 350.762 313.071 206.52 279.732 175.66 232.598 C 139.89 177.963 12.714 343.184 -94.402 189.598 C -201.518 36.012 616.109 -50.419 730.767 58.462 Z " fill="rgb(255,255,255)"/><path d=" M 730.767 58.462 C 836.15 158.535 846.103 252.744 764.819 145.66 C 739.098 111.774 625.471 233.281 592.717 196.512 C 541.305 138.8 493.62 297.797 392.598 308.598 C 350.762 313.071 206.52 279.732 175.66 232.598 C 139.89 177.963 12.714 343.184 -94.402 189.598 C -201.518 36.012 616.109 -50.419 730.767 58.462 Z " fill="rgb(255,255,255)" mask="url(#_mask_Xmjh3U1FvFKf1haGIGVejBXA6f4eC6Z4)" vector-effect="non-scaling-stroke" stroke-width="2" stroke="rgb(255,255,255)" stroke-opacity="100" stroke-linejoin="miter" stroke-linecap="square" stroke-miterlimit="3"/><mask id="_mask_MGVqQXitVayINPkSMzB87KRB9PzLW874" x="-200%" y="-200%" width="400%" height="400%"><rect x="-200%" y="-200%" width="400%" height="400%" style="fill:white;"/><path d=" M -187 197 L -345 280 L -255 227" fill="black" stroke="none"/></mask><path d=" M -187 197 L -345 280 L -255 227" fill="rgb(255,255,255)"/><path d=" M -187 197 L -345 280 L -255 227" fill="rgb(255,255,255)" mask="url(#_mask_MGVqQXitVayINPkSMzB87KRB9PzLW874)" vector-effect="non-scaling-stroke" stroke-width="2" stroke="rgb(0,0,0)" stroke-opacity="100" stroke-linejoin="miter" stroke-linecap="square" stroke-miterlimit="3"/><clipPath id="_clipPath_Jagt3nnuDptt1tNWI6WFNO2HTXKatfG9"><rect x="552.911" y="44.151" width="191" height="47.988" transform="matrix(1,0,0,1,0,0)" fill="rgb(255,255,255)"/></clipPath><g clip-path="url(#_clipPath_Jagt3nnuDptt1tNWI6WFNO2HTXKatfG9)"><g><g clip-path="url(#_clipPath_terc90tst0GTwUqNTgibjokUTBUkpRMl)"><text transform="matrix(1,0,0,1,552.911,83.103)" style="font-face:'Playfair Display';font-weight:400;font-size:36px;font-style:normal;">Contact me</text></g><defs><clipPath id="_clipPath_terc90tst0GTwUqNTgibjokUTBUkpRMl"><rect x="0" y="0" width="189" height="47.988" transform="matrix(1,0,0,1,552.911,44.151)"/></clipPath></defs></g></g><path d=" M 57.784 59.012 L 62.475 64.475 L 69.332 61.387 L 70.929 68.145 L 78.593 68.045 L 76.781 74.759 L 83.733 77.667 L 78.867 83.006 L 83.733 88.345 L 76.781 91.253 L 78.593 97.966 L 70.929 97.866 L 69.332 104.624 L 62.475 101.537 L 57.784 107 L 53.092 101.537 L 46.235 104.624 L 44.638 97.866 L 36.974 97.966 L 38.786 91.253 L 31.833 88.345 L 36.699 83.006 L 31.833 77.667 L 38.786 74.759 L 36.974 68.045 L 44.638 68.145 L 46.235 61.387 L 53.092 64.475 L 57.784 59.012 L 57.784 59.012 Z " fill-rule="evenodd" fill="rgb(77,91,255)"/></g></g></g></svg>
